<svg width="416" height="416" viewBox="0 0 416 416" fill="none" xmlns="http://www.w3.org/2000/svg">
<g clip-path="url(#clip0_7_7)">
<path d="M74.8946 262.868L31.7698 277.243C21.1212 280.793 15.7969 282.568 11.8927 281.379C8.48489 280.341 5.66365 277.931 4.10729 274.726C2.32417 271.055 3.24683 265.519 5.09215 254.447L19.4671 168.198C23.051 146.695 24.8429 135.943 29.0967 132.862C32.7675 130.203 37.5709 129.684 41.7252 131.497C46.5391 133.598 50.5873 143.718 58.6836 163.959L87.4334 235.833C90.2405 242.851 91.6441 246.36 91.2988 249.534C90.9954 252.323 89.7837 254.936 87.8502 256.97C85.6504 259.283 82.0651 260.478 74.8947 262.868L74.8946 262.868Z" fill="white"/>
<path d="M340.105 262.868L383.23 277.243C393.879 280.793 399.203 282.568 403.107 281.379C406.515 280.341 409.336 277.931 410.893 274.726C412.676 271.055 411.753 265.519 409.908 254.447L395.533 168.198C391.949 146.695 390.157 135.943 385.903 132.862C382.232 130.203 377.429 129.684 373.275 131.497C368.461 133.598 364.413 143.718 356.316 163.959L327.567 235.833C324.759 242.851 323.356 246.36 323.701 249.534C324.005 252.323 325.216 254.936 327.15 256.97C329.35 259.283 332.935 260.478 340.105 262.868L340.105 262.868Z" fill="white"/>
<path d="M188.485 336.462L90.7345 92.0861C86.9708 82.677 85.089 77.9724 85.8738 74.1958C86.5601 70.8932 88.5223 67.995 91.3338 66.1312C94.5488 64 99.6158 64 109.75 64H305.25C315.384 64 320.451 64 323.666 66.1312C326.478 67.995 328.44 70.8932 329.126 74.1958C329.911 77.9724 328.029 82.677 324.266 92.0861L226.515 336.462C220.579 351.302 217.611 358.723 213.367 360.911C209.686 362.809 205.314 362.809 201.633 360.911C197.389 358.723 194.421 351.302 188.485 336.462Z" fill="white"/>
</g>
<defs>
<clipPath id="clip0_7_7">
<rect width="416" height="416" fill="white"/>
</clipPath>
</defs>
</svg>
